# xmcd CD database file
#
# Track frame offsets:
#	150
#	20358
#	41606
#	62086
#	82523
#	103148
#	123311
#	144008
#	164378
#	184997
#	204799
#	224701
#	245618
#
# Disc length: 4381 seconds
#
# Revision: 0
# Processed by: cddbd v1.5PL3 Copyright (c) Steve Scherf et al.
# Submitted via: CDex 1.51
#
DISCID=ad111b0d
DTITLE=Ayumi Hamasaki - Rmx Works From Super Eurobeat Presents Ayu-ro Mix
DYEAR=2003
DGENRE=JPop
TTITLE0=Ayumi Hamasaki - Independent (Europop Mix)
TTITLE1=Ayumi Hamasaki - We Wish (Starlight Mix)
TTITLE2=Ayumi Hamasaki - Dearest (Sentimental Euro Mix)
TTITLE3=Ayumi Hamasaki - July 1st (A Eurobeat Mix)
TTITLE4=Ayumi Hamasaki - Heartplace (Dreamland Mix)
TTITLE5=Ayumi Hamasaki - Naturally (Human Mix)
TTITLE6=Ayumi Hamasaki - Hanabi (A Eurosenti Mix)
TTITLE7=Ayumi Hamasaki - Daybreak (Eurospeedy Mix)
TTITLE8=Ayumi Hamasaki - Real Me (A Eurobeat Mix)
TTITLE9=Ayumi Hamasaki - Everywhere Nowhere (Time Mix)
TTITLE10=Ayumi Hamasaki - Free and Easy (Energy Mix)
TTITLE11=Ayumi Hamasaki - Voyage (Sweet Mix)
TTITLE12=Ayumi Hamasaki - Depend On You
EXTD=YEAR: 2003
EXTT0=
EXTT1=
EXTT2=
EXTT3=
EXTT4=
EXTT5=
EXTT6=
EXTT7=
EXTT8=
EXTT9=
EXTT10=
EXTT11=
EXTT12=
PLAYORDER=
